<svg xmlns="http://www.w3.org/2000/svg" viewBox="0 0 333.78 127.68"><title>logo</title><g id="Layer_2" data-name="Layer 2"><g id="Layer_1-2" data-name="Layer 1"><path d="M50,118l5.65,9.72,5.53-9.73A11.22,11.22,0,0,0,50,118" style="fill:#ffa400"/><path d="M11.25,31.5H0L5.59,41.2A11.2,11.2,0,0,0,9.7,37.14a11.35,11.35,0,0,0,1.55-5.64" style="fill:#00bfd6"/><polygon points="20.9 87.62 14.56 89.33 13.26 96.62 22.17 96.63 20.9 87.62" style="fill:#b3282d"/><polygon points="8.42 46.05 18.03 46.93 16.74 60.45 8.42 46.05" style="fill:#b3282d"/><polygon points="5.25 87.64 0.08 96.63 10.41 96.62 11.65 89.59 5.25 87.64" style="fill:#ffa400"/><path d="M48.31,12.09s11-2.32,12.32-2.63c0,0-1.84-3.38-5.4-9.45Z" style="fill:#b3282d"/><polygon points="20.3 67.08 18.6 64.3 12.97 74.15 16.58 76.19 20.3 67.08" style="fill:#250671"/><polygon points="93.47 49.73 96.62 39.81 104.74 41.67 99.4 51 93.47 49.73" style="fill:#250671"/><polygon points="44.88 109.01 54.09 107.5 49.18 99.45 42.37 104.68 44.88 109.01" style="fill:#b3282d"/><path d="M41.31,102.78l7.66-6s-1.92,0-11.12,0Z" style="fill:#ffa400"/><polygon points="87.35 54.66 92.3 63.1 98.03 53.11 92.51 51.9 87.35 54.66" style="fill:#b3282d"/><polygon points="56.91 106.52 58.49 113.28 62.8 115.06 66.97 107.73 56.91 106.52" style="fill:#00bfd6"/><polygon points="105.4 86.72 111.17 96.69 102.26 96.69 105.4 86.72" style="fill:#b3282d"/><polygon points="55.02 13.52 46.53 15.35 41.48 24.27 50.28 24.07 55.02 13.52" style="fill:#00bfd6"/><path d="M97.19,85.79l6.9-1.15L100,77.69l-10.86-.35s3.27,3.46,8,8.45" style="fill:#00bfd6"/><polygon points="64.59 27.23 68.94 23.52 62.54 12.36 58.63 13.17 55.89 19.13 64.59 27.23" style="fill:#ffa400"/><polygon points="87.37 39.37 93.83 39.46 96.35 31.58 89.78 31.58 87.37 39.37" style="fill:#b3282d"/><polygon points="87.43 90.27 88.11 79.86 96.22 88.44 91.11 91.21 87.43 90.27" style="fill:#c7ecf2"/><polygon points="42.72 61.34 36.66 57.27 30.73 66.79 38.55 71.06 42.72 61.34" style="fill:#00bfd6"/><path d="M42.73,89.35l7.33-8.48-4.34-2.71S40.26,81.3,37.6,83Z" style="fill:#00bfd6"/><path d="M34.4,82.23s8-4.87,9.1-5.49c0,0-6.67-3.87-7.77-4.41Z" style="fill:#ffa400"/><polygon points="26.55 50.53 30.95 62.29 24.14 68.18 20.17 61.48 26.55 50.53" style="fill:#b3282d"/><polygon points="42.73 47.51 48.43 53.14 53.84 51.42 51.58 41.39 42.73 47.51" style="fill:#c7ecf2"/><polygon points="62.69 51.85 59.47 34.01 52.9 35.51 55.67 47.13 62.69 51.85" style="fill:#00bfd6"/><polygon points="76.51 49.06 64.52 48.91 68.29 59.11 76.51 49.06" style="fill:#c7ecf2"/><polygon points="84.98 90.31 78.43 87.98 84.49 77.28 84.98 90.31" style="fill:#250671"/><polygon points="85.25 56.01 90.69 65.48 82.17 64.3 85.25 56.01" style="fill:#ffa400"/><polygon points="86.94 67.98 72.03 64.33 75.75 71.88 83.22 74.55 86.94 67.98" style="fill:#c7ecf2"/><polygon points="32.52 59.32 39.55 47.79 34.72 42.96 29.14 50.1 32.52 59.32" style="fill:#250671"/><polygon points="27.83 31.5 30.98 31.5 35.33 37.8 28.25 46.98 27.83 31.5" style="fill:#00bfd6"/><polygon points="34.95 96.63 24.44 96.63 23.32 89.08 34.95 96.63" style="fill:#00bfd6"/><polygon points="35.26 35.02 38.46 37.72 46.98 26.87 39.92 26.92 35.26 35.02" style="fill:#b3282d"/><polygon points="26.4 77.34 23.76 86.23 28.98 89.58 32.75 81.15 26.4 77.34" style="fill:#b3282d"/><path d="M21.75,84.47s2.9-9.72,2.91-9.78l-2.89-5.07L15,86.29Z" style="fill:#c7ecf2"/><path d="M48.35,115l7.26-1.67c-.41-1.72-.82-3.5-.82-3.5l-8.62,1.42Z" style="fill:#00bfd6"/><path d="M61.64,94.44l-6.72-.25A13.27,13.27,0,0,1,52,99.68l4.77,4.84a12.78,12.78,0,0,0,4.89-10.08" style="fill:#c7ecf2"/><path d="M94.63,96.69h5l2.14-8.77-8.81,5.5Z" style="fill:#ffa400"/><path d="M98.75,75.32l-4.4-7.59-5,1.48s-2.73,4.68-3.11,5.52Z" style="fill:#b3282d"/><polygon points="91.76 96.69 90.05 93.46 79.68 90.81 75.54 96.63 91.76 96.69" style="fill:#00bfd6"/><polygon points="76.75 90.9 68.89 84.19 63.05 93.19 73.15 97.02 76.75 90.9" style="fill:#b3282d"/><path d="M56.05,92l6.6-3.19,3.25-6s-11.83-2-11.83-2Z" style="fill:#ffa400"/><path d="M50.66,83.68l-6.74,7.85,6.81,3.87c1.71-1.35,2.61-4.3,2.5-6.35,0-.07,0-.13,0-.2a7.87,7.87,0,0,0-2.55-5.17" style="fill:#b3282d"/><path d="M12.5,86.95l3.38-8.2L11.7,76.45s-5,8.71-5,8.76Z" style="fill:#00bfd6"/><path d="M61.38,104.66l6.86.93c.15-.24,3.66-6.48,3.74-6.61l-7.23-2.7a13.19,13.19,0,0,1-3.37,8.39" style="fill:#250671"/><polygon points="35.45 84.19 43.75 94.35 36.28 94.33 31.08 90.93 35.45 84.19" style="fill:#250671"/><path d="M27.64,74.82a7,7,0,0,0,4.93,3.32l1-7-4.47-2.48-1.59-.87a7,7,0,0,0,.12,7" style="fill:#250671"/><polygon points="87.24 50.54 90.36 51.19 93.37 42.18 82.4 42.03 87.24 50.54" style="fill:#c7ecf2"/><polygon points="61.54 62.82 66.03 60.47 64.72 56.46 57.57 51.65 51.13 55.67 61.54 62.82" style="fill:#250671"/><polygon points="45.5 62.63 53.11 67.69 59.52 64.08 51.9 59.15 45.5 62.63" style="fill:#00bfd6"/><path d="M57.83,68A11.14,11.14,0,0,0,71.46,71l-4.13-8.34Z" style="fill:#ffa400"/><polygon points="59.45 31.34 51.02 33.23 48.03 30.53 54.71 21.69 62.27 28.89 59.45 31.34" style="fill:#c7ecf2"/><path d="M69.4,61.19l7.36-7.64a9.28,9.28,0,0,1,2.55,10.06Z" style="fill:#250671"/><path d="M80.49,54.52a11,11,0,0,1,1.07,2.53l3.91-4.92L80.77,44l-2.47,7.8a10.82,10.82,0,0,1,2.19,2.68" style="fill:#00bfd6"/><path d="M68.35,39.41l-6-1.59,1.49,8.44h2.07a10.93,10.93,0,0,1,2.42-6.84" style="fill:#00bfd6"/><polygon points="110.49 31.61 106.12 39.17 97.61 37.2 99.32 31.61 110.49 31.61" style="fill:#00bfd6"/><polygon points="49.59 57.43 45.09 59.95 38.17 55.34 41.55 49.65 49.59 57.43" style="fill:#b3282d"/><polygon points="45.76 32.12 37.82 42.53 41.25 45.69 50.91 38.94 50.48 36.63 45.76 32.12" style="fill:#ffa400"/><polygon points="82.21 76.68 78.72 82.81 73 73.42 82.21 76.68" style="fill:#00bfd6"/><path d="M75.71,86.73A11.14,11.14,0,0,0,76,84.58a10.88,10.88,0,0,0-4.77-9.07l-1,6.53Z" style="fill:#c7ecf2"/><polyline points="44.22 64.62 40.86 72.36 50.96 78.12 57.41 72.42" style="fill:#c7ecf2"/><polygon points="25.95 37.15 25.71 31.5 14.54 31.5 21.45 40.87 25.95 37.15" style="fill:#250671"/><polygon points="7.36 43.37 17.28 44.23 19.31 42.55 14.23 35.06 7.36 43.37" style="fill:#ffa400"/><polygon points="20.37 56.8 26.02 47.08 25.85 40.47 20.7 44.79 19.71 55.81 20.37 56.8" style="fill:#c7ecf2"/><polygon points="67.96 80.7 69.09 74.46 59.62 73.41 54.51 78.5 67.96 80.7" style="fill:#b3282d"/><polygon points="76.04 31.56 80.04 39.28 85.05 39.34 87.48 31.58 76.04 31.56" style="fill:#ffa400"/><path d="M68.25,46.66l9.26.12,1.63-5.23-2.46-4.15a9.29,9.29,0,0,0-8.42,9.25Z" style="fill:#b3282d"/><path d="M62.09,32.95l.44,2.61,8.07,2.11a11.15,11.15,0,0,1,1.4-1,10.87,10.87,0,0,1,3.66-1.32l-5.22-9.33s-4.05,3.29-8.35,6.89" style="fill:#250671"/><path d="M127.33,30.22H135c3.12,0,5.23,1,5.23,4.06A3.59,3.59,0,0,1,138,37.7a4,4,0,0,1,3,4.15c0,3.33-2.82,4.75-5.78,4.75h-7.93Zm3.6,6.63h3.65c1.26,0,2.2-.57,2.2-1.95,0-1.56-1.19-1.88-2.48-1.88h-3.37Zm0,6.95h3.85c1.42,0,2.66-.46,2.66-2.16s-1.05-2.34-2.59-2.34h-3.92Z" style="fill:#fff"/><polygon points="143.47 30.23 155.71 30.23 155.71 33.25 147.07 33.25 147.07 36.76 155 36.76 155 39.56 147.07 39.56 147.07 43.57 155.9 43.57 155.9 46.6 143.47 46.6 143.47 30.23" style="fill:#fff"/><rect x="158.33" y="30.22" width="3.6" height="16.38" style="fill:#fff"/><polygon points="168.71 33.25 163.81 33.25 163.81 30.23 177.22 30.23 177.22 33.25 172.31 33.25 172.31 46.6 168.71 46.6 168.71 33.25" style="fill:#fff"/><polygon points="185.47 30.23 189.07 30.23 189.07 36.51 195.7 36.51 195.7 30.23 199.3 30.23 199.3 46.6 195.7 46.6 195.7 39.53 189.07 39.53 189.07 46.6 185.47 46.6 185.47 30.23" style="fill:#fff"/><path d="M206.93,30.22h3.69l6.12,16.37H213L211.77,43h-6.12l-1.28,3.65h-3.65Zm-.34,10h4.24l-2.06-6h0Z" style="fill:#fff"/><polygon points="220.1 33.25 215.19 33.25 215.19 30.23 228.6 30.23 228.6 33.25 223.69 33.25 223.69 46.6 220.1 46.6 220.1 33.25" style="fill:#fff"/><polygon points="230.48 30.23 241.99 30.23 241.99 33.25 234.08 33.25 234.08 37.04 240.94 37.04 240.94 39.83 234.08 39.83 234.08 46.6 230.48 46.6 230.48 30.23" style="fill:#fff"/><path d="M258,40.41c0,4.43-2.62,6.58-7,6.58s-7-2.13-7-6.58V30.22h3.6V40.41c0,1.79.46,3.55,3.37,3.55,2.57,0,3.39-1.12,3.39-3.55V30.22H258Z" style="fill:#fff"/><polygon points="264.69 33.25 259.78 33.25 259.78 30.23 273.2 30.23 273.2 33.25 268.29 33.25 268.29 46.6 264.69 46.6 264.69 33.25" style="fill:#fff"/><path d="M277.53,41.16c0,2.18,1.7,3,3.62,3,1.26,0,3.19-.37,3.19-2s-2.45-2.06-4.86-2.71-4.88-1.58-4.88-4.65c0-3.35,3.16-5,6.12-5,3.42,0,6.56,1.49,6.56,5.27h-3.48c-.12-2-1.52-2.47-3.23-2.47-1.15,0-2.48.48-2.48,1.86s.78,1.42,4.88,2.48c1.19.3,4.86,1.05,4.86,4.77,0,3-2.36,5.25-6.81,5.25-3.62,0-7-1.79-7-5.83Z" style="fill:#fff"/><path d="M297.3,29.83c5.07,0,8,3.78,8,8.65s-3,8.51-8,8.51-8-3.78-8-8.51,3-8.65,8-8.65m0,14.13c3.23,0,4.45-2.75,4.45-5.48s-1.22-5.62-4.45-5.62-4.45,2.75-4.45,5.62S294.06,44,297.3,44" style="fill:#fff"/><polygon points="311.42 33.25 306.51 33.25 306.51 30.23 319.93 30.23 319.93 33.25 315.02 33.25 315.02 46.6 311.42 46.6 311.42 33.25" style="fill:#fff"/><polygon points="131.25 59.57 125.79 59.57 125.79 57.74 138.88 57.74 138.88 59.57 133.43 59.57 133.43 74.11 131.25 74.11 131.25 59.57" style="fill:#fff"/><path d="M140.37,57.74h1.95V64h0a4,4,0,0,1,3.74-2c3.12,0,4.08,1.79,4.08,4.34v7.8h-1.95v-8a2.23,2.23,0,0,0-2.41-2.39c-2.36,0-3.51,1.58-3.51,3.71v6.7h-1.95Z" style="fill:#fff"/><path d="M163.23,70.35a4.78,4.78,0,0,1-5.07,4c-3.79,0-5.57-2.61-5.69-6.24S154.82,62,158,62c4.2,0,5.48,3.92,5.37,6.79h-8.87a3.49,3.49,0,0,0,3.69,3.9,2.86,2.86,0,0,0,3.07-2.32Zm-1.88-3.3a3.41,3.41,0,0,0-3.42-3.35,3.38,3.38,0,0,0-3.39,3.35Z" style="fill:#fff"/><polygon points="172.17 57.74 175.15 57.74 180.31 71.5 185.5 57.74 188.48 57.74 188.48 74.11 186.41 74.11 186.41 60.49 186.37 60.49 181.25 74.11 179.4 74.11 174.28 60.49 174.24 60.49 174.24 74.11 172.17 74.11 172.17 57.74" style="fill:#fff"/><path d="M201.59,74.11h-1.83V72.23h0a4.13,4.13,0,0,1-3.85,2.16c-3.12,0-4.08-1.79-4.08-4.34v-7.8h2v8a2.23,2.23,0,0,0,2.41,2.39c2.36,0,3.51-1.58,3.51-3.72V62.26h1.95Z" style="fill:#fff"/><path d="M205.72,70.37c.07,1.74,1.58,2.29,3.19,2.29,1.21,0,2.87-.28,2.87-1.77s-1.92-1.76-3.87-2.2S204,67.62,204,65.35,206.38,62,208.45,62c2.61,0,4.7.82,4.86,3.71h-2c-.14-1.52-1.47-2-2.75-2s-2.52.32-2.52,1.51c0,1.4,2.06,1.63,3.88,2.06s3.88,1.08,3.88,3.37c0,2.82-2.63,3.74-5,3.74-2.66,0-4.91-1.08-5-4Z" style="fill:#fff"/><path d="M226.1,70.35a4.78,4.78,0,0,1-5.07,4c-3.78,0-5.57-2.61-5.69-6.24S217.69,62,220.92,62c4.19,0,5.48,3.92,5.37,6.79h-8.87a3.49,3.49,0,0,0,3.69,3.9,2.86,2.86,0,0,0,3.08-2.32Zm-1.88-3.3a3.41,3.41,0,0,0-3.42-3.35,3.38,3.38,0,0,0-3.39,3.35Z" style="fill:#fff"/><path d="M238.12,74.11h-1.83V72.23h0a4.13,4.13,0,0,1-3.85,2.16c-3.12,0-4.08-1.79-4.08-4.34v-7.8h1.95v8a2.23,2.23,0,0,0,2.41,2.39c2.36,0,3.51-1.58,3.51-3.72V62.26h1.95Z" style="fill:#fff"/><path d="M241,62.26h1.84V64h0a4.37,4.37,0,0,1,3.83-2A3.14,3.14,0,0,1,250,64a4.39,4.39,0,0,1,3.71-2c2.36,0,3.95,1,3.95,3.44v8.69h-1.95V66.34c0-1.47-.39-2.64-2.29-2.64a2.87,2.87,0,0,0-3.09,3v7.38h-2V66.34c0-1.53-.48-2.64-2.22-2.64a3.2,3.2,0,0,0-3.16,3v7.38H241Z" style="fill:#fff"/><path d="M274.23,57.35c5.21,0,7.84,4.13,7.84,8.58s-2.64,8.58-7.84,8.58-7.84-4.13-7.84-8.58,2.64-8.58,7.84-8.58m0,15.32c4,0,5.66-3.44,5.66-6.74s-1.67-6.74-5.66-6.74-5.66,3.44-5.66,6.74,1.67,6.74,5.66,6.74" style="fill:#fff"/><path d="M285.21,64h-2V62.26h2V60.49c0-1.92,1.15-2.93,3.28-2.93a4.74,4.74,0,0,1,1.26.18v1.7a3.63,3.63,0,0,0-1.1-.16c-.94,0-1.49.3-1.49,1.33v1.65h2.29V64h-2.29V74.11h-1.95Z" style="fill:#fff"/><polygon points="301.61 59.57 296.15 59.57 296.15 57.74 309.24 57.74 309.24 59.57 303.78 59.57 303.78 74.11 301.61 74.11 301.61 59.57" style="fill:#fff"/><path d="M310.73,57.74h1.95V64h0a4,4,0,0,1,3.74-2c3.12,0,4.08,1.79,4.08,4.34v7.8H318.6v-8a2.24,2.24,0,0,0-2.41-2.39c-2.36,0-3.51,1.58-3.51,3.71v6.7h-1.95Z" style="fill:#fff"/><path d="M333.59,70.35a4.78,4.78,0,0,1-5.07,4c-3.78,0-5.57-2.61-5.69-6.24S325.17,62,328.41,62c4.19,0,5.48,3.92,5.37,6.79H324.9a3.49,3.49,0,0,0,3.69,3.9,2.86,2.86,0,0,0,3.08-2.32Zm-1.88-3.3a3.41,3.41,0,0,0-3.42-3.35,3.38,3.38,0,0,0-3.39,3.35Z" style="fill:#fff"/><path d="M135.85,93.39c0,2.22-1.17,4.47-4.84,4.47-3.05,0-4.77-1.7-4.77-4.77v-1h2.18v.69c0,1.9.5,3.25,2.64,3.25s2.61-1.15,2.61-3v-12h2.18Z" style="fill:#fff"/><path d="M149.22,93.71a4.77,4.77,0,0,1-5.07,4c-3.78,0-5.57-2.61-5.69-6.24s2.34-6.17,5.58-6.17c4.19,0,5.48,3.92,5.37,6.79h-8.88a3.49,3.49,0,0,0,3.69,3.9,2.86,2.86,0,0,0,3.08-2.32Zm-1.88-3.3a3.41,3.41,0,0,0-3.42-3.35,3.38,3.38,0,0,0-3.4,3.35Z" style="fill:#fff"/><polygon points="163.16 97.47 161.1 97.47 158.69 88.05 158.65 88.05 156.26 97.47 154.15 97.47 150.35 85.62 152.5 85.62 155.19 95.32 155.23 95.32 157.62 85.62 159.75 85.62 162.23 95.32 162.27 95.32 164.93 85.62 166.95 85.62 163.16 97.47" style="fill:#fff"/><path d="M170.87,83.48h-1.95V81.1h1.95Zm-1.95,2.13h1.95V97.47h-1.95Z" style="fill:#fff"/><path d="M175.09,93.73c.07,1.74,1.58,2.29,3.19,2.29,1.21,0,2.87-.28,2.87-1.77s-1.93-1.76-3.87-2.2-3.88-1.08-3.88-3.35,2.36-3.37,4.43-3.37c2.62,0,4.7.83,4.86,3.72h-2c-.14-1.51-1.47-2-2.75-2s-2.52.32-2.52,1.51c0,1.4,2.06,1.63,3.88,2.06s3.88,1.08,3.88,3.37c0,2.82-2.64,3.74-5,3.74-2.66,0-4.9-1.08-5-4Z" style="fill:#fff"/><path d="M185.36,81.1h1.95v6.26h0a4,4,0,0,1,3.73-2c3.12,0,4.08,1.79,4.08,4.33v7.8h-1.95v-8a2.24,2.24,0,0,0-2.41-2.39c-2.36,0-3.51,1.58-3.51,3.72v6.7h-1.95Z" style="fill:#fff"/><path d="M204.8,81.1H212c3.25,0,5,1.81,5,4.84s-1.77,4.86-5,4.84h-5v6.7H204.8ZM207,88.94h4.26c2.45,0,3.58-1.06,3.58-3s-1.12-3-3.58-3H207Z" style="fill:#fff"/><path d="M229.45,93.71a4.77,4.77,0,0,1-5.07,4c-3.78,0-5.57-2.61-5.69-6.24s2.34-6.17,5.58-6.17c4.19,0,5.48,3.92,5.37,6.79h-8.88a3.49,3.49,0,0,0,3.69,3.9,2.86,2.86,0,0,0,3.08-2.32Zm-1.88-3.3a3.41,3.41,0,0,0-3.42-3.35,3.38,3.38,0,0,0-3.39,3.35Z" style="fill:#fff"/><path d="M236.76,85.34c3.76,0,5.75,2.73,5.75,6.21s-2,6.19-5.75,6.19S231,95,231,91.56s2-6.21,5.76-6.21m0,10.69c2,0,3.69-1.61,3.69-4.47s-1.65-4.5-3.69-4.5-3.69,1.61-3.69,4.5S234.72,96,236.76,96" style="fill:#fff"/><path d="M244.88,85.62h1.95v1.61h0a4,4,0,0,1,3.78-1.88c3.65,0,5.46,2.89,5.46,6.24s-1.79,6.17-5.41,6.17a4.54,4.54,0,0,1-3.83-1.86h0V102h-1.95Zm5.51,1.44c-2.62,0-3.62,2.25-3.62,4.47s1.06,4.5,3.73,4.5,3.56-2.27,3.56-4.59-1.15-4.38-3.67-4.38" style="fill:#fff"/><rect x="258.52" y="81.1" width="1.95" height="16.37" style="fill:#fff"/><path d="M273.61,93.71a4.77,4.77,0,0,1-5.07,4c-3.78,0-5.57-2.61-5.69-6.24s2.34-6.17,5.57-6.17c4.19,0,5.48,3.92,5.37,6.79h-8.87a3.49,3.49,0,0,0,3.69,3.9,2.86,2.86,0,0,0,3.08-2.32Zm-1.88-3.3a3.41,3.41,0,0,0-3.42-3.35,3.38,3.38,0,0,0-3.39,3.35Z" style="fill:#fff"/></g></g></svg>